<svg width="348" height="130" viewBox="0 0 348 130" fill="none" xmlns="http://www.w3.org/2000/svg">
<path d="M220.454 115.546C219.533 118.003 218.064 119.931 216.047 121.319C214.02 122.707 211.641 123.412 208.89 123.412C205.031 123.412 201.864 122.343 199.386 120.195C196.898 118.047 195.659 115.072 195.659 111.271C195.659 107.735 196.942 104.826 199.507 102.546C202.072 100.265 205.152 99.1305 208.747 99.1305C212.343 99.1305 215.379 100.199 217.374 102.325C219.369 104.452 220.366 107.063 220.366 110.147H205.349C205.349 111.326 205.437 112.527 205.612 113.761C205.788 114.995 206.127 116.174 206.632 117.331C207.136 118.476 207.848 119.402 208.769 120.107C209.69 120.812 210.852 121.164 212.244 121.164C214.25 121.164 215.828 120.603 216.99 119.468C218.152 118.333 219.051 116.923 219.676 115.215L220.465 115.557L220.454 115.546ZM211.794 109.156C211.762 108.792 211.74 108.374 211.718 107.878C211.696 107.382 211.696 106.765 211.696 106.005C211.696 104.011 211.455 102.491 210.972 101.455C210.49 100.419 209.646 99.9017 208.451 99.9017C207.421 99.9017 206.697 100.397 206.292 101.4C205.886 102.403 205.601 103.934 205.437 105.994L205.338 109.145H211.794V109.156Z" fill="#EFEFEF"/>
<path d="M219.961 94.2941V93.589H190.288V94.239C190.639 94.261 191.012 94.2831 191.428 94.2941C191.845 94.3051 192.261 94.3602 192.689 94.4593C193.116 94.5585 193.489 94.7348 193.818 94.9992C194.136 95.2636 194.3 95.7373 194.3 96.4093C194.3 97.0042 194.125 97.8966 193.774 99.0975C193.423 100.298 192.766 102.248 191.812 104.947C190.847 107.647 189.894 110.269 188.962 112.792C187.406 108.671 186.244 105.564 185.465 103.449C184.687 101.334 184.106 99.6924 183.723 98.5026C183.339 97.3237 183.142 96.4864 183.142 96.0017C183.142 95.3076 183.317 94.889 183.679 94.7458C184.04 94.6136 184.512 94.4924 185.104 94.3822L186.868 94.217V93.567H168.278V94.217L169.922 94.3822C170.624 94.4593 171.15 94.6797 171.534 95.0432C171.906 95.4068 172.301 96.0237 172.695 96.8831L173.945 100.034L182.144 123.158H186.288L194.366 100.122L195.572 97.0153C195.944 96.1229 196.372 95.5059 196.854 95.1644C197.337 94.8119 197.874 94.5254 198.564 94.4263C199.211 94.3271 199.463 94.3051 200.066 94.3051C201.381 94.3271 219.621 94.3271 219.961 94.3051V94.2941Z" fill="#EFEFEF"/>
<path d="M219.972 89.4136H168.3V90.1627H219.972V89.4136Z" fill="#EFEFEF"/>
<path d="M219.972 126.629H168.3V127.378H219.972V126.629Z" fill="#EFEFEF"/>
<path d="M273.507 122.09L266.503 128.788C263.773 131.399 259.487 128.259 261.11 124.844L265.286 116.075C266.064 114.433 265.428 112.472 263.839 111.613L255.333 106.986C252.023 105.19 253.667 100.111 257.394 100.607L266.985 101.885C268.772 102.127 270.438 100.915 270.767 99.1195L272.52 89.5568C273.2 85.833 278.505 85.833 279.185 89.5568L280.939 99.1195C281.267 100.904 282.934 102.116 284.72 101.885L294.311 100.607C298.038 100.111 299.682 105.179 296.372 106.986L287.866 111.613C286.277 112.472 285.641 114.444 286.419 116.075L290.596 124.844C292.218 128.259 287.932 131.388 285.203 128.788L278.198 122.09C276.894 120.834 274.833 120.834 273.529 122.09H273.507Z" fill="#EFEFEF"/>
<path d="M307.213 124.811C307.191 126.42 306.369 127.72 304.736 128.711C303.07 129.692 301.305 129.978 299.452 129.548C297.293 129.075 295.835 127.764 295.079 125.615C294.772 124.657 294.607 123.566 294.607 122.354C294.629 120.008 295.221 118.135 296.383 116.747C297.359 115.535 298.663 114.797 300.296 114.532C301.743 114.312 303.124 114.488 304.44 115.072C305.799 115.656 306.654 116.482 307.016 117.562C307.147 117.892 307.213 118.245 307.213 118.597C307.213 119.137 307.07 119.611 306.774 120.041C306.369 120.625 305.635 121.098 304.571 121.451C304.056 121.627 303.026 121.881 301.469 122.189C300.329 122.431 299.463 122.674 298.86 122.894C297.786 123.28 297.03 123.786 296.591 124.436C296.723 125.979 297.26 127.191 298.192 128.061C299.014 128.843 300 129.24 301.129 129.24C301.557 129.24 301.952 129.185 302.335 129.075C303.267 128.788 303.99 128.248 304.505 127.477C305.021 126.706 305.273 125.814 305.273 124.811C305.273 124.337 305.437 124.029 305.777 123.875C306.106 123.72 306.435 123.742 306.764 123.941C307.081 124.139 307.235 124.436 307.213 124.811ZM296.559 122.531V123.5C297.249 122.806 298.51 122.222 300.329 121.759C301.995 121.352 302.949 121.12 303.168 121.054C304.078 120.746 304.681 120.36 304.977 119.908C305.174 119.622 305.273 119.281 305.273 118.906C305.273 118.058 305.054 117.297 304.604 116.625C304.155 115.953 303.552 115.458 302.796 115.149C302.083 114.885 301.36 114.819 300.636 114.962C299.913 115.105 299.277 115.436 298.718 115.953C297.271 117.275 296.548 119.468 296.548 122.531H296.559Z" fill="#EFEFEF"/>
<path d="M301.107 130C300.548 130 299.978 129.934 299.408 129.802C297.172 129.317 295.627 127.94 294.849 125.703C294.531 124.712 294.366 123.588 294.366 122.354C294.388 119.953 295.002 118.014 296.197 116.581C297.216 115.325 298.575 114.554 300.263 114.279C301.754 114.047 303.201 114.235 304.549 114.83C305.963 115.436 306.884 116.328 307.257 117.463C307.399 117.826 307.476 118.201 307.476 118.597C307.476 119.181 307.312 119.721 306.994 120.184C306.566 120.812 305.777 121.319 304.659 121.693C304.133 121.881 303.102 122.123 301.524 122.442C300.406 122.685 299.54 122.916 298.959 123.136C297.983 123.478 297.282 123.941 296.865 124.514C297.008 125.946 297.512 127.07 298.378 127.874C299.145 128.612 300.077 128.975 301.14 128.975C301.535 128.975 301.919 128.92 302.269 128.821C303.135 128.546 303.826 128.05 304.297 127.334C304.779 126.607 305.021 125.758 305.021 124.811C305.021 124.095 305.371 123.775 305.667 123.632C306.073 123.445 306.5 123.467 306.895 123.709C307.301 123.963 307.498 124.337 307.465 124.811C307.443 126.508 306.566 127.896 304.867 128.92C303.661 129.636 302.401 129.989 301.096 129.989L301.107 130ZM300.088 114.841C298.652 115.127 297.468 115.832 296.591 116.923C295.473 118.256 294.903 120.096 294.881 122.365C294.881 123.544 295.035 124.613 295.342 125.538C296.076 127.609 297.446 128.843 299.529 129.295C299.781 129.35 300.033 129.394 300.285 129.427C299.441 129.273 298.685 128.876 298.038 128.259C297.063 127.345 296.493 126.067 296.35 124.47V124.381L296.394 124.304C296.865 123.61 297.677 123.059 298.795 122.663C299.397 122.442 300.285 122.2 301.436 121.947C302.982 121.638 304.012 121.396 304.516 121.22C305.525 120.878 306.226 120.437 306.599 119.908C306.851 119.534 306.983 119.093 306.983 118.608C306.983 118.289 306.917 117.97 306.796 117.661C306.468 116.647 305.645 115.865 304.363 115.314C303.782 115.061 303.19 114.885 302.576 114.786C302.686 114.819 302.806 114.852 302.916 114.896C303.727 115.226 304.374 115.755 304.845 116.471C305.317 117.187 305.558 118.003 305.558 118.895C305.558 119.325 305.437 119.721 305.207 120.052C304.889 120.547 304.253 120.955 303.278 121.286C303.048 121.363 302.116 121.594 300.428 122.002C298.663 122.453 297.424 123.026 296.778 123.676L296.339 124.117V122.52C296.339 119.391 297.096 117.11 298.597 115.744C299.047 115.325 299.562 115.017 300.132 114.83L300.088 114.841ZM306.215 124.029C306.106 124.029 305.996 124.051 305.887 124.106C305.733 124.172 305.536 124.326 305.536 124.811C305.536 125.869 305.262 126.816 304.725 127.62C304.177 128.436 303.398 129.008 302.412 129.317C302.324 129.339 302.226 129.372 302.138 129.383C302.982 129.251 303.815 128.942 304.615 128.469C306.172 127.521 306.939 126.32 306.961 124.789C306.972 124.492 306.873 124.293 306.632 124.139C306.489 124.051 306.358 124.007 306.215 124.007V124.029ZM301.414 115.138C301.173 115.138 300.943 115.16 300.702 115.204C300.022 115.336 299.419 115.656 298.904 116.13C297.523 117.397 296.811 119.545 296.811 122.52V122.938C297.567 122.376 298.707 121.903 300.263 121.506C301.919 121.109 302.861 120.867 303.091 120.801C303.946 120.503 304.505 120.162 304.758 119.765C304.933 119.512 305.021 119.225 305.021 118.895C305.021 118.102 304.812 117.386 304.396 116.758C303.979 116.13 303.409 115.667 302.708 115.381C302.28 115.215 301.842 115.138 301.414 115.138Z" fill="#EFEFEF"/>
<path d="M106.413 32.0263L120.169 18.861L111.981 36.0915L128.675 45.1805L109.854 42.6686L106.413 61.4415L102.971 42.6686L84.1392 45.1805L100.844 36.0915L92.6451 18.861L106.413 32.0263Z" fill="#EFEFEF"/>
<path d="M112.025 54.9305C112.025 52.9475 112.584 51.2729 113.713 49.9068C114.842 48.5407 116.3 47.8576 118.097 47.8576C118.92 47.8576 119.676 48.0009 120.355 48.2983C121.035 48.5958 121.561 48.9593 121.934 49.378C122.307 49.8076 122.624 50.2593 122.877 50.7331C123.129 51.2068 123.304 51.6034 123.392 51.9009C123.479 52.2093 123.523 52.4297 123.523 52.5729C123.523 52.9254 123.118 53.1127 122.307 53.1127H114.743C114.59 53.1127 114.491 53.1237 114.458 53.1568C114.425 53.1898 114.414 53.278 114.414 53.4432C114.414 55.3051 114.908 56.7703 115.894 57.839C116.881 58.9076 118.043 59.4475 119.38 59.4475C120.202 59.4475 121.046 59.2271 121.901 58.7754C122.756 58.3348 123.205 58.1034 123.238 58.1034C123.436 58.1034 123.534 58.1915 123.534 58.3678C123.534 58.4449 123.468 58.5881 123.326 58.7975C123.184 59.0068 122.975 59.2492 122.679 59.5246C122.383 59.8 122.044 60.0644 121.649 60.3288C121.254 60.5822 120.761 60.8026 120.18 60.9788C119.588 61.1551 118.974 61.2432 118.328 61.2432C116.574 61.2432 115.083 60.7034 113.855 59.6348C112.628 58.5661 112.014 56.9907 112.014 54.9085L112.025 54.9305ZM114.601 51.989C114.601 52.2644 114.732 52.4076 114.984 52.4076C115.511 52.4076 116.486 52.3746 117.9 52.3195C119.314 52.2644 120.07 52.2314 120.169 52.2314C120.443 52.2314 120.619 52.2093 120.684 52.1542C120.75 52.1102 120.783 52.011 120.783 51.8678C120.783 51.2729 120.509 50.5788 119.961 49.7856C119.413 48.9924 118.624 48.5958 117.604 48.5958C116.662 48.5958 115.927 48.9924 115.401 49.7636C114.875 50.5458 114.612 51.2839 114.612 51.978L114.601 51.989Z" fill="#EFEFEF"/>
<path d="M27.5458 113.739C26.6579 113.739 25.8358 114.047 25.0905 114.675C24.3451 115.303 23.7751 116.053 23.3805 116.945C22.9859 117.837 22.7996 118.73 22.7996 119.622C24.3451 119.567 25.5947 119.314 26.5374 118.873C27.48 118.432 28.1377 117.925 28.4994 117.364C28.8721 116.791 29.0585 116.196 29.0585 115.579C29.0585 114.962 28.8941 114.488 28.5762 114.191C28.2583 113.893 27.9185 113.739 27.5458 113.739Z" fill="#EFEFEF"/>
<path d="M20.0373 89.2483L0 103.879L7.651 127.543H32.4017L40.0527 103.879L20.0263 89.2593L20.0373 89.2483ZM31.4809 118.069C30.878 118.796 30.1217 119.347 29.201 119.721C27.3704 120.459 25.5837 120.834 23.8189 120.834L22.9201 120.79C23.0078 122.398 24.082 123.214 26.1647 123.214C26.932 123.214 27.7321 122.993 28.5652 122.553C29.3983 122.112 30.0669 121.583 30.5821 120.988L31.4809 121.572C30.319 123.522 28.4775 124.712 25.9345 125.153C25.3755 125.241 24.8384 125.274 24.3232 125.274C22.8215 125.274 21.5609 124.778 20.5525 123.764C19.544 122.762 19.0508 121.539 19.0508 120.096C19.0508 118.653 19.4892 117.319 20.3661 116.086C21.243 114.863 22.3392 113.904 23.6655 113.232C24.9918 112.56 26.2852 112.219 27.5677 112.219C28.8502 112.219 29.9683 112.516 30.9109 113.1C31.8536 113.684 32.3359 114.477 32.3578 115.48C32.3797 116.471 32.0838 117.33 31.4919 118.058L31.4809 118.069Z" fill="#EFEFEF"/>
<path d="M39.7128 54.2034C37.5205 54.0491 35.8325 53.4873 34.6486 52.5178C33.2127 51.328 32.4893 49.5983 32.4893 47.3178V39.1652L39.7128 33.5466C41.905 33.7008 43.5931 34.2627 44.7769 35.2322C46.2128 36.411 46.9363 38.1407 46.9363 40.4322L36.2161 49.1246C36.4244 49.7085 36.7203 50.1602 37.093 50.4686C37.8493 51.1076 38.7043 51.4271 39.6689 51.4271C40.6335 51.4271 41.5981 51.0746 42.4202 50.3585C43.1108 49.7635 43.4506 48.75 43.4506 47.3178L46.7609 45.7424H46.9363V48.5737L39.7128 54.1924V54.2034ZM35.964 46.5576L43.4506 40.4873C43.4506 39 43.0669 37.9313 42.3106 37.2813C41.5543 36.6313 40.6774 36.3119 39.7018 36.3119C38.5728 36.3119 37.674 36.6644 36.9834 37.3805C36.2928 38.0966 35.953 39.1102 35.953 40.4212V46.5466L35.964 46.5576Z" fill="#EFEFEF"/>
<path d="M27.9075 26.0881H25.4412L19.7852 31.7839V26.0881H16.2447V35.3314L11.6628 39.9475V26.0881H8.12234V43.4949L3.54051 48.111V26.0881H0V54.2144H2.4663L8.12234 48.5186V54.2144H11.6628V44.9712L16.2447 40.3551V54.2144H19.7852V36.8076L24.367 32.1915V54.2144H27.9075V26.0881Z" fill="#EFEFEF"/>
<path d="M179.25 31.167C178.79 31.167 178.253 31.189 177.639 31.222C177.025 31.2661 176.499 31.3102 176.061 31.3653L175.469 30.0983C175.995 30.2085 176.62 30.2856 177.343 30.3297C178.067 30.3737 178.702 30.3848 179.25 30.3848H194.816L196.328 28.7763C196.394 28.7212 196.515 28.6881 196.69 28.6881C196.865 28.6881 196.997 28.7212 197.085 28.7763L199.189 30.4178C199.452 30.6492 199.551 30.8254 199.485 30.9686C199.419 31.1009 199.222 31.167 198.893 31.167H187.186L185.411 38.5153H192.338L193.292 37.3915C193.358 37.3695 193.467 37.3585 193.621 37.3364C193.774 37.3144 193.906 37.3364 194.015 37.3915L195.89 38.8568C195.956 38.9339 195.977 39.0441 195.956 39.1983C195.934 39.3525 195.89 39.4517 195.824 39.5178L194.87 40.0686V50.5788H196.712L198.29 48.9373C198.356 48.8822 198.477 48.8492 198.641 48.8492C198.805 48.8492 198.948 48.8822 199.058 48.9373L201.206 50.6559C201.403 50.8432 201.48 51.0085 201.436 51.1407C201.392 51.2729 201.217 51.339 200.91 51.339H177.771C177.31 51.339 176.773 51.361 176.159 51.4161C175.546 51.4602 175.008 51.5153 174.548 51.5703L173.989 50.3034C174.537 50.3805 175.173 50.4466 175.885 50.4907C176.598 50.5348 177.234 50.5678 177.782 50.5678H180.16L182.901 39.2534H180.621C180.16 39.2534 179.623 39.2754 179.009 39.3305C178.395 39.3746 177.858 39.4407 177.398 39.5178L176.839 38.1958C177.387 38.3059 178.023 38.3941 178.746 38.4381C179.47 38.4822 180.094 38.5153 180.621 38.5153H183.098L184.874 31.167H179.272H179.25ZM185.213 39.2644L182.506 50.5788H192.426V39.2644H185.202H185.213Z" fill="#EFEFEF"/>
<path d="M174.318 51.9559L173.397 49.8958L174.011 49.9839C174.548 50.061 175.184 50.1161 175.885 50.1712C176.598 50.2153 177.223 50.2373 177.76 50.2373H179.864L182.429 39.617H180.588C180.138 39.617 179.601 39.639 178.998 39.6831C178.396 39.7271 177.869 39.7932 177.409 39.8703L177.146 39.9144L176.225 37.7331L176.872 37.8653C177.409 37.9754 178.034 38.0526 178.735 38.1076C179.448 38.1517 180.073 38.1737 180.588 38.1737H182.791L184.402 31.5195H179.24C178.79 31.5195 178.253 31.5415 177.65 31.5746C177.036 31.6076 176.521 31.6627 176.094 31.7178L175.842 31.7509L174.844 29.6246L175.524 29.7678C176.028 29.878 176.642 29.9551 177.343 29.9881C178.056 30.0212 178.692 30.0432 179.24 30.0432H194.651L196.087 28.5229C196.219 28.4017 196.405 28.3576 196.679 28.3576C196.92 28.3576 197.118 28.4017 197.26 28.5009H197.282L199.408 30.1644C199.803 30.5059 199.935 30.8364 199.792 31.1229C199.595 31.5195 199.069 31.5195 198.893 31.5195H187.461L185.849 38.1737H192.174L193.095 37.0941L193.193 37.061C193.281 37.039 193.402 37.017 193.577 36.9949C193.796 36.9729 194.004 36.9949 194.169 37.0831H194.202L196.131 38.6034L196.153 38.6254C196.284 38.7797 196.339 38.989 196.295 39.2424C196.263 39.4848 196.175 39.661 196.043 39.7712L196.021 39.7932L195.21 40.2559V50.2153H196.569L198.071 48.6619C198.203 48.5517 198.389 48.4966 198.641 48.4966C198.86 48.4966 199.058 48.5407 199.211 48.6178H199.244L201.436 50.4026C201.732 50.689 201.842 50.9754 201.754 51.2509C201.655 51.5373 201.371 51.6915 200.899 51.6915H177.76C177.31 51.6915 176.773 51.7136 176.17 51.7576C175.568 51.8017 175.03 51.8568 174.57 51.9119L174.318 51.9449V51.9559ZM174.526 50.7331L174.734 51.2068C175.151 51.1627 175.611 51.1187 176.116 51.0746C176.729 51.0305 177.288 50.9975 177.76 50.9975H200.899C200.954 50.9975 201.009 50.9975 201.042 50.9975C201.02 50.9754 200.998 50.9534 200.976 50.9203L198.882 49.2348C198.827 49.2127 198.751 49.2017 198.652 49.2017C198.575 49.2017 198.542 49.2017 198.521 49.2127L196.865 50.9203H194.531V39.8703L195.605 39.2644C195.605 39.2644 195.616 39.2203 195.627 39.1653C195.627 39.1322 195.627 39.1102 195.627 39.0992L193.84 37.7C193.84 37.7 193.741 37.678 193.665 37.689C193.577 37.689 193.522 37.711 193.478 37.711L192.492 38.8678H184.972L186.923 30.8254H198.893C198.981 30.8254 199.047 30.8254 199.091 30.8144C199.058 30.7814 199.025 30.7373 198.97 30.6932L196.887 29.0737C196.887 29.0737 196.811 29.0407 196.679 29.0407C196.602 29.0407 196.558 29.0407 196.537 29.0517L194.947 30.7373H179.24C178.681 30.7373 178.034 30.7153 177.31 30.6822C176.85 30.6602 176.434 30.6161 176.039 30.561L176.247 30.9907C176.642 30.9466 177.091 30.9026 177.606 30.8805C178.231 30.8475 178.779 30.8254 179.24 30.8254H185.279L183.328 38.8678H180.588C180.051 38.8678 179.415 38.8458 178.681 38.7907C178.209 38.7576 177.76 38.7136 177.354 38.6475L177.563 39.1322C177.968 39.0771 178.428 39.022 178.944 38.978C179.568 38.9339 180.117 38.9009 180.588 38.9009H183.295L180.391 50.9093H177.749C177.201 50.9093 176.554 50.8873 175.831 50.8322C175.359 50.7992 174.921 50.7661 174.515 50.722L174.526 50.7331ZM192.766 50.9203H182.068L184.939 38.9119H192.777V50.9203H192.766ZM182.934 50.2263H192.075V39.6059H185.466L182.923 50.2263H182.934Z" fill="#EFEFEF"/>
<path d="M209.033 49.8958C210.786 49.8958 212.047 49.1576 212.814 47.6924H214.952C214.502 48.8822 213.779 49.8407 212.803 50.5678C211.817 51.3059 210.556 51.6695 209.011 51.6695C207.049 51.6695 205.448 51.0195 204.221 49.7085C203.026 48.4305 202.423 46.8331 202.423 44.9161C202.423 42.9992 202.993 41.3797 204.144 40.1237C205.36 38.8127 206.939 38.1627 208.879 38.1627C210.819 38.1627 212.409 38.8127 213.614 40.1237C214.765 41.3797 215.335 42.9771 215.335 44.9161V45.6983H204.418C204.56 46.8992 205.032 47.9017 205.854 48.6839C206.687 49.4881 207.75 49.8848 209.033 49.8848V49.8958ZM208.879 39.9475C207.684 39.9475 206.676 40.322 205.854 41.0712C205.086 41.7873 204.615 42.7237 204.451 43.8695H213.307C213.132 42.7127 212.661 41.7873 211.904 41.0712C211.093 40.322 210.085 39.9475 208.879 39.9475Z" fill="#EFEFEF"/>
<path d="M256.21 53.2119V49.4771H252.494V45.7424H259.915V49.4771H271.052V38.2839H252.494V27.0907H274.757V30.8254H259.915V34.5602H274.757V38.2949H278.472V49.4881H274.757V53.2229H256.199L256.21 53.2119Z" fill="#EFEFEF"/>
<path d="M285.904 53.2118V49.4771H282.188V38.2839H285.904V34.5491H304.462V38.2839H308.178V45.7424H289.62V49.4771H304.462V53.2118H285.904ZM289.62 42.0186H300.757V38.2839H289.62V42.0186Z" fill="#EFEFEF"/>
<path d="M304.527 27.1127H282.199V30.8254H304.527V27.1127Z" fill="#EFEFEF"/>
<path d="M114.02 99.0534L120.859 107.074L109.997 114.73V119.17L115.62 121.418L119.423 118.807L119.961 119.534L112.112 125.042C110.512 124.183 109.186 123.566 108.155 123.192C107.114 122.817 105.645 122.431 103.738 122.024V121.418C104.286 121.098 104.659 120.691 104.845 120.206C105.031 119.732 105.119 118.697 105.119 117.099V103.163C106.643 102.612 107.903 102.105 108.901 101.653C109.624 101.312 111.334 100.453 114.02 99.0754V99.0534ZM110.337 101.852L109.997 102.017V113.078L116.387 108.583L110.337 101.841V101.852Z" fill="#EFEFEF"/>
<path d="M83.8211 91.7491H98.9039L97.0624 96.4313H84.2376L82.3961 107.922L92.6669 100.981C95.3743 102.171 97.4131 103.725 98.7943 105.664C100.175 107.592 100.866 109.707 100.866 111.998C100.866 114.918 99.9014 117.617 97.9722 120.074C96.043 122.53 92.7765 124.194 88.1618 125.042L78.9214 119.457L82.3961 115.667L93.4671 122.156C94.5522 121.242 95.3086 120.382 95.747 119.545C96.4047 118.311 96.7445 117.022 96.7445 115.667C96.7445 113.43 96.0649 111.414 94.6947 109.63C93.3246 107.845 91.1542 106.435 88.1618 105.388L80.8835 110.258L83.8211 91.7271V91.7491Z" fill="#EFEFEF"/>
<path d="M116.124 91.8042H105.152V96.3212H114.326L116.124 91.8042Z" fill="#EFEFEF"/>
</svg>
