<svg width="158" height="123" viewBox="0 0 158 123" fill="none" xmlns="http://www.w3.org/2000/svg">
<g clip-path="url(#clip0_220_205)">
<path d="M112.771 33.5819C99.0171 33.5819 86.6875 39.6645 78.386 49.2558C70.0967 39.6645 57.7671 33.5819 44.0131 33.5819C36.3869 33.5819 29.2151 35.4516 22.9153 38.7418V20.3847L60.5302 20.6032V0H0V68.5843H22.9153L23.1609 68.0015C26.452 61.5182 32.7396 56.7711 40.2184 55.5449C41.2008 55.2899 42.4657 55.1442 44.0253 55.1442C56.9566 55.1442 67.4318 65.5005 67.4318 78.2849C67.4318 91.0693 56.9443 101.438 44.0253 101.438C42.7727 101.438 41.7412 101.328 40.8938 101.146C36.4237 100.551 32.3466 98.6938 29.0432 95.95H2.45609C9.38225 111.867 25.3836 123 44.0131 123C57.7671 123 70.0967 116.917 78.386 107.338C86.6753 116.917 99.0048 123 112.771 123C131.401 123 147.402 111.867 154.328 95.95H127.741C124.438 98.6817 120.36 100.539 115.89 101.146C115.043 101.328 114.011 101.438 112.759 101.438C99.8276 101.438 89.3524 91.0814 89.3524 78.2849C89.3524 65.4883 99.8276 55.1442 112.759 55.1442C114.319 55.1442 115.583 55.2899 116.566 55.5449C124.045 56.7711 130.332 61.5061 133.623 68.0015L97.875 68.1957V88.7868L156.784 88.5925L157.374 85.6423C157.779 83.2505 157.988 80.798 157.988 78.297C157.988 53.6023 137.737 33.5819 112.759 33.5819H112.771Z" fill="#ED411C"/>
<path d="M133.55 0H78.1772V20.5911H133.55V0Z" fill="#ED411C"/>
</g>
<defs>
<clipPath id="clip0_220_205">
<rect width="158" height="123" fill="white"/>
</clipPath>
</defs>
</svg>
