<svg width="14" height="14" viewBox="0 0 14 14" fill="none" xmlns="http://www.w3.org/2000/svg">
<path d="M6.36027 2.97878L7.6293 1.70976C7.89114 1.44768 8.20204 1.23975 8.54426 1.09786C8.88647 0.955974 9.25329 0.882899 9.62375 0.882813C9.99422 0.882726 10.3611 0.955631 10.7033 1.09736C11.0456 1.23909 11.3566 1.44687 11.6186 1.70883C11.8805 1.97079 12.0883 2.28179 12.2301 2.62407C12.3718 2.96635 12.4447 3.3332 12.4446 3.70367C12.4445 4.07413 12.3714 4.44095 12.2296 4.78316C12.0877 5.12538 11.8797 5.43629 11.6177 5.69812L9.80477 7.51102C9.54289 7.77289 9.23199 7.98063 8.88983 8.12236C8.54767 8.26409 8.18094 8.33703 7.81059 8.33703C7.44023 8.33703 7.07351 8.26409 6.73134 8.12236C6.38918 7.98063 6.07829 7.77289 5.81641 7.51102" stroke="black" stroke-width="1.5" stroke-linecap="round" stroke-linejoin="round"/>
<path d="M7.08433 10.2293L5.81531 11.4984C5.55347 11.7604 5.24257 11.9684 4.90035 12.1103C4.55814 12.2522 4.19132 12.3252 3.82086 12.3253C3.45039 12.3254 3.08354 12.2525 2.74126 12.1108C2.39898 11.969 2.08797 11.7613 1.82602 11.4993C1.56406 11.2373 1.35628 10.9263 1.21455 10.5841C1.07282 10.2418 0.999914 9.87492 1 9.50446C1.00009 9.13399 1.07316 8.76718 1.21505 8.42496C1.35694 8.08275 1.56487 7.77184 1.82695 7.51L3.63984 5.69711C3.90172 5.43523 4.21261 5.2275 4.55478 5.08577C4.89694 4.94404 5.26367 4.87109 5.63402 4.87109C6.00437 4.87109 6.3711 4.94404 6.71326 5.08577C7.05543 5.2275 7.36632 5.43523 7.6282 5.69711" stroke="black" stroke-width="1.5" stroke-linecap="round" stroke-linejoin="round"/>
</svg>
