<svg width="354" height="57" viewBox="0 0 354 57" fill="none" xmlns="http://www.w3.org/2000/svg">
<path d="M0 41.1138V44.1482H33.1395L35.4557 28.976H31.5953L31.0608 30.642C29.5167 35.5209 26.9036 39.4478 21.3209 39.4478H17.6388C15.085 39.4478 14.016 38.4363 14.016 35.8779V10.7693C14.016 7.55637 14.8474 6.0094 18.8265 6.0094H19.4204V2.97495H0V6.0094H0.415728C4.27606 6.0094 5.10752 7.43737 5.10752 10.7098V36.4134C5.10752 39.6858 4.21667 41.1138 0.415728 41.1138H0Z" fill="black"/>
<path d="M45.1455 26.953H63.4969C63.5563 26.4175 63.5563 26.001 63.5563 25.5251C63.3187 19.0397 58.8645 14.6367 52.391 14.6367C44.9673 14.6367 38.672 20.8246 38.672 30.285C38.672 39.2693 44.4922 45.0407 51.619 45.0407C60.1117 45.0407 63.0218 37.3653 63.4969 33.1409H61.0619C60.1117 35.6994 57.8549 37.6033 54.1727 37.6033C48.5307 37.6033 45.2049 33.0814 45.1455 27.6075V26.953ZM51.619 18.3257C55.1824 18.3257 56.7859 21.2411 56.8453 23.8591H45.5018C46.0363 20.5271 48.4713 18.3257 51.619 18.3257Z" fill="black"/>
<path d="M94.3439 38.3768L92.8591 37.8413C92.5028 38.6148 91.7307 39.1503 90.9586 39.1503C89.7115 39.1503 89.4145 38.3173 89.4145 37.3058L89.5927 24.2756V24.0376C89.5927 17.3737 84.9603 14.6367 78.5462 14.6367C71.2412 14.6367 67.0246 18.6827 67.0246 23.0261C67.0246 25.5251 68.6875 27.1315 70.8255 27.1315C72.726 27.1315 74.2107 25.7631 74.2107 24.0376C74.2107 22.7881 73.795 22.1931 73.795 21.1816C73.795 19.3967 75.161 17.9687 77.8335 17.9687C80.5061 17.9687 82.1096 19.8727 82.1096 22.9071V27.667L77.1208 28.976C71.4788 30.4635 67.3215 32.5459 67.3215 37.6628C67.3215 41.7088 70.8255 44.8027 75.1016 44.8027C78.7837 44.8027 81.3375 42.5418 82.4659 39.4478H82.7629V39.5668C82.8816 43.1962 85.376 44.9812 88.1079 44.9812C92.8591 44.9812 94.1657 40.6973 94.3439 38.3768ZM82.1096 30.5825V36.5919C81.3375 37.8413 79.9715 38.9718 78.0711 38.9718C76.0518 38.9718 74.5077 37.6033 74.5077 35.6399C74.5077 33.2599 76.4081 32.1889 79.5558 31.2965L82.1096 30.5825Z" fill="black"/>
<path d="M115.011 15.0532C113.23 15.0532 111.686 15.8267 110.498 16.8977C109.31 17.9687 108.538 19.3967 108.182 20.6461H107.825V14.9342H105.509C102.955 15.5887 98.0854 16.8977 95.4723 17.4332V20.0511H96.5413C98.9169 20.0511 100.105 20.8841 100.105 23.4426V37.6033C100.105 40.1023 99.2732 41.1733 96.3631 41.1733H96.0662V44.1482H112.933V41.1733H111.626C109.073 41.1733 107.825 40.2808 107.825 37.4843V25.8225C107.825 23.1451 109.251 22.2526 110.32 22.2526C112.28 22.2526 112.577 24.0971 115.487 24.0971C117.803 24.0971 119.703 22.3121 119.703 19.6347C119.703 16.9572 117.922 15.0532 115.011 15.0532Z" fill="black"/>
<path d="M121.15 41.1733V44.1482H136.354V41.1733H135.997C133.562 41.1733 132.969 40.2808 132.969 37.6628V22.6096C134.097 21.4196 136.057 20.5866 137.898 20.5866C140.57 20.5866 142.471 21.8956 142.471 25.7036V37.6628C142.471 40.1618 142.055 41.1733 139.561 41.1733H139.264V44.1482H154.052V41.1733H153.755C150.904 41.1733 150.192 40.1023 150.192 37.2463V23.5021C150.192 18.0877 147.281 14.8152 141.936 14.8152C137.957 14.8152 134.81 16.8382 133.265 19.7537H132.969V14.9342H130.652C128.099 15.5887 123.229 16.8977 120.615 17.4332V20.0511H121.684C124.06 20.0511 125.248 20.8841 125.248 23.4426V37.6628C125.248 40.1023 124.357 41.1733 121.269 41.1733H121.15Z" fill="black"/>
<path d="M163.648 10.6503C166.618 10.6503 168.994 8.27036 168.994 5.29541C168.994 2.37996 166.618 0 163.648 0C160.679 0 158.303 2.37996 158.303 5.29541C158.303 8.27036 160.679 10.6503 163.648 10.6503ZM155.987 41.1733V44.1482H172.794V41.1733H172.498C169.29 41.1733 168.34 40.1023 168.34 37.6628V14.9342H166.024C163.53 15.5887 158.244 16.8977 155.69 17.4332V20.0511H157.116C159.432 20.0511 160.62 20.8841 160.62 23.4426V37.6628C160.62 40.1023 159.729 41.1733 156.522 41.1733H155.987Z" fill="black"/>
<path d="M175.234 41.1733V44.1482H190.438V41.1733H190.082C187.647 41.1733 187.053 40.2808 187.053 37.6628V22.6096C188.181 21.4196 190.141 20.5866 191.982 20.5866C194.655 20.5866 196.555 21.8956 196.555 25.7036V37.6628C196.555 40.1618 196.139 41.1733 193.645 41.1733H193.348V44.1482H208.136V41.1733H207.839C204.988 41.1733 204.276 40.1023 204.276 37.2463V23.5021C204.276 18.0877 201.366 14.8152 196.02 14.8152C192.041 14.8152 188.894 16.8382 187.35 19.7537H187.053V14.9342H184.736C182.183 15.5887 177.313 16.8977 174.7 17.4332V20.0511H175.769C178.144 20.0511 179.332 20.8841 179.332 23.4426V37.6628C179.332 40.1023 178.441 41.1733 175.353 41.1733H175.234Z" fill="black"/>
<path d="M237.391 21.3601H239.588V15.8862H231.689C229.551 15.8862 228.363 15.5887 227.235 15.2912C226.107 14.9937 225.037 14.6962 223.018 14.6962C215.535 14.6962 211.021 19.5752 211.021 25.1086C211.021 29.1545 213.516 32.9624 217.198 34.3309C214.644 34.6284 210.546 36.2349 210.546 40.1023C210.546 42.7203 212.387 44.3267 214.585 45.1002C211.497 45.5167 209.121 47.3612 209.121 49.9791C209.121 54.501 214.704 57 222.484 57C230.501 57 237.806 54.1441 237.806 47.1232C237.806 43.2557 234.956 40.2213 228.898 39.8048L219.158 39.0908C217.673 38.9718 216.723 38.4958 216.723 37.4248C216.723 36.0564 218.445 35.6994 219.989 35.6994H223.018C230.501 35.6994 234.837 30.761 234.837 25.1681C234.837 23.3831 234.302 21.5386 233.352 19.9322L233.649 19.6942C234.48 20.5866 235.549 21.3601 237.391 21.3601ZM223.018 32.2484C221.118 32.2484 218.564 30.8205 218.564 25.1681C218.564 19.5157 221.118 18.2067 223.018 18.2067C224.919 18.2067 227.472 19.5157 227.472 25.1681C227.472 30.8205 224.919 32.2484 223.018 32.2484ZM217.198 45.6357L227.829 46.5877C230.383 46.8257 231.273 47.8372 231.273 49.3246C231.273 51.7046 228.482 53.3111 223.434 53.3111C217.911 53.3111 214.763 51.6451 214.763 48.7296C214.763 47.1827 215.713 46.1117 217.139 45.6357H217.198Z" fill="black"/>
<path d="M297.441 2.97495H282.535V5.9499H284.435C286.751 5.9499 287.939 6.96138 287.939 8.92484C287.939 9.75783 287.702 10.7693 287.286 12.0188L280.218 33.5574L272.557 11.7213C272.141 10.5908 271.844 9.57933 271.844 8.74635C271.844 6.66388 273.389 5.9499 275.527 5.9499H276.596V2.97495H258.482V5.9499C260.798 5.9499 262.402 7.19937 263.471 10.2338L264.54 13.2683L257.65 32.6649L250.048 11.3048C249.692 10.2338 249.455 9.34134 249.455 8.56785C249.455 6.78288 250.524 5.9499 252.186 5.9499H253.671V2.97495H235.32V5.9499C238.052 6.06889 239.655 7.31837 241.199 11.7213L252.721 44.1482H258.007L266.737 19.2777L275.764 44.1482H281.109L292.037 11.8403C293.462 7.67537 294.294 6.12839 297.441 5.9499V2.97495Z" fill="black"/>
<path d="M299.025 26.953H317.376C317.436 26.4175 317.436 26.001 317.436 25.5251C317.198 19.0397 312.744 14.6367 306.271 14.6367C298.847 14.6367 292.552 20.8246 292.552 30.285C292.552 39.2693 298.372 45.0407 305.499 45.0407C313.991 45.0407 316.901 37.3653 317.376 33.1409H314.941C313.991 35.6994 311.734 37.6033 308.052 37.6033C302.41 37.6033 299.084 33.0814 299.025 27.6075V26.953ZM305.499 18.3257C309.062 18.3257 310.665 21.2411 310.725 23.8591H299.381C299.916 20.5271 302.351 18.3257 305.499 18.3257Z" fill="black"/>
<path d="M319.419 41.1733V44.1482H335.455V41.1733H335.158C332.188 41.1733 331.297 40.0428 331.297 37.6628V7.13987C331.297 4.87892 331.297 2.55845 331.357 0.594989H328.862C326.249 1.36848 321.023 2.79645 318.172 3.27244V5.9499H320.013C322.329 5.9499 323.577 6.78288 323.577 9.57933V37.6628C323.577 40.0428 322.686 41.1733 319.598 41.1733H319.419Z" fill="black"/>
<path d="M337.965 41.1733V44.1482H354V41.1733H353.703C350.734 41.1733 349.843 40.0428 349.843 37.6628V7.13987C349.843 4.87892 349.843 2.55845 349.902 0.594989H347.408C344.795 1.36848 339.568 2.79645 336.718 3.27244V5.9499H338.559C340.875 5.9499 342.122 6.78288 342.122 9.57933V37.6628C342.122 40.0428 341.231 41.1733 338.143 41.1733H337.965Z" fill="black"/>
</svg>
