<svg width="16" height="15" viewBox="0 0 16 15" fill="none" xmlns="http://www.w3.org/2000/svg">
<path d="M0.831299 1.07452C0.831299 0.48139 1.32469 0 1.93297 0H14.6352C15.2437 0 15.7369 0.48139 15.7369 1.07452V13.9257C15.7369 14.519 15.2437 15 14.6352 15H1.93297C1.32469 15 0.831299 14.519 0.831299 13.9259V1.07432V1.07452Z" fill="black"/>
<path d="M5.34922 12.5579V5.7846H3.09788V12.5579H5.34941H5.34922ZM4.22394 4.85999C5.00888 4.85999 5.49755 4.33984 5.49755 3.68986C5.48279 3.02512 5.00888 2.51953 4.23889 2.51953C3.46831 2.51953 2.96509 3.02512 2.96509 3.68986C2.96509 4.33984 3.45356 4.85999 4.20918 4.85999H4.22374H4.22394ZM6.59528 12.5579H8.84642V8.77583C8.84642 8.57359 8.86118 8.37096 8.92059 8.22657C9.08328 7.8219 9.45372 7.40307 10.0758 7.40307C10.8902 7.40307 11.2162 8.02413 11.2162 8.93478V12.5579H13.4673V8.67432C13.4673 6.59393 12.3568 5.62584 10.8757 5.62584C9.66126 5.62584 9.12794 6.30455 8.83167 6.76686H8.84662V5.7848H6.59548C6.62479 6.42022 6.59528 12.5581 6.59528 12.5581V12.5579Z" fill="white"/>
</svg>
