<svg width="12" height="12" viewBox="0 0 12 12" fill="none" xmlns="http://www.w3.org/2000/svg">
<path d="M0 0.859616C0 0.385112 0.394711 0 0.881333 0H11.0431C11.5299 0 11.9245 0.385112 11.9245 0.859616V11.1405C11.9245 11.6152 11.5299 12 11.0431 12H0.881333C0.394711 12 0 11.6152 0 11.1407V0.859459V0.859616Z" fill="black"/>
<path d="M3.61433 10.0459V4.62731H1.81326V10.0459H3.61449H3.61433ZM2.71411 3.88762C3.34206 3.88762 3.733 3.47151 3.733 2.95152C3.7212 2.41973 3.34206 2.01526 2.72607 2.01526C2.10961 2.01526 1.70703 2.41973 1.70703 2.95152C1.70703 3.47151 2.09781 3.88762 2.70231 3.88762H2.71396H2.71411ZM4.61119 10.0459H6.4121V7.02029C6.4121 6.85851 6.4239 6.6964 6.47143 6.58089C6.60158 6.25715 6.89793 5.92209 7.39557 5.92209C8.04713 5.92209 8.30791 6.41894 8.30791 7.14746V10.0459H10.1088V6.93909C10.1088 5.27478 9.22041 4.50031 8.03548 4.50031C7.06397 4.50031 6.63731 5.04327 6.40029 5.41312H6.41226V4.62747H4.61134C4.63479 5.13581 4.61119 10.0461 4.61119 10.0461V10.0459Z" fill="white"/>
</svg>
