<svg width="11" height="11" viewBox="0 0 11 11" fill="none" xmlns="http://www.w3.org/2000/svg">
<path d="M11 1.30223C10.5909 1.52308 10.1551 1.66946 9.70063 1.74054C10.1681 1.397 10.5249 0.857154 10.6927 0.206462C10.2568 0.526308 9.77556 0.752231 9.26269 0.878308C8.84881 0.335923 8.25894 0 7.61544 0C6.36694 0 5.36181 1.24723 5.36181 2.77623C5.36181 2.99623 5.37694 3.20777 5.41406 3.40915C3.53925 3.29662 1.88031 2.19069 0.765875 0.506C0.571312 0.921462 0.457188 1.397 0.457188 1.90892C0.457188 2.87015 0.859375 3.72223 1.45888 4.21554C1.09656 4.20708 0.741125 4.07762 0.44 3.87369C0.44 3.88215 0.44 3.89315 0.44 3.90415C0.44 5.25292 1.22169 6.37323 2.24675 6.63131C2.06319 6.69308 1.86313 6.72269 1.6555 6.72269C1.51113 6.72269 1.36538 6.71254 1.22856 6.67531C1.52075 7.77446 2.34988 8.58254 3.33575 8.60877C2.5685 9.34746 1.59431 9.79254 0.539688 9.79254C0.35475 9.79254 0.177375 9.78238 0 9.75446C0.998937 10.5473 2.18281 11 3.4595 11C7.60925 11 9.878 6.76923 9.878 3.102C9.878 2.97931 9.87456 2.86085 9.86975 2.74323C10.3173 2.35231 10.6934 1.86408 11 1.30223Z" fill="black"/>
</svg>
