<svg width="15" height="14" viewBox="0 0 15 14" fill="none" xmlns="http://www.w3.org/2000/svg">
<path d="M14.219 2.14243C13.6937 2.40937 13.1339 2.58632 12.5502 2.67223C13.1506 2.25698 13.6089 1.60444 13.8243 0.817919C13.2645 1.20453 12.6465 1.47762 11.9878 1.63001C11.4563 0.974405 10.6987 0.568359 9.87225 0.568359C8.26881 0.568359 6.97793 2.07595 6.97793 3.92412C6.97793 4.19004 6.99736 4.44574 7.04504 4.68916C4.63723 4.55313 2.50667 3.21635 1.0754 1.17999C0.825529 1.68217 0.67896 2.25698 0.67896 2.87576C0.67896 4.03765 1.19549 5.06759 1.96542 5.66388C1.5001 5.65365 1.04362 5.49716 0.656886 5.25067C0.656886 5.2609 0.656886 5.2742 0.656886 5.28749C0.656886 6.91781 1.6608 8.27198 2.97728 8.58393C2.74153 8.65859 2.4846 8.69439 2.21794 8.69439C2.03252 8.69439 1.84534 8.68212 1.66963 8.63712C2.04489 9.96571 3.10972 10.9425 4.37588 10.9742C3.3905 11.8671 2.13936 12.4051 0.784914 12.4051C0.5474 12.4051 0.319598 12.3928 0.0917969 12.359C1.37473 13.3174 2.89517 13.8646 4.53481 13.8646C9.8643 13.8646 12.778 8.75064 12.778 4.31789C12.778 4.16959 12.7736 4.0264 12.7674 3.88423C13.3422 3.4117 13.8252 2.82156 14.219 2.14243Z" fill="black"/>
</svg>
